<svg width="176" height="64" viewBox="0 0 176 64" fill="none" xmlns="http://www.w3.org/2000/svg">
<path d="M174.087 0.12L1.91304 0C1.40567 0 0.919083 0.210714 0.560318 0.585786C0.201552 0.960859 0 1.46957 0 2L0 62C0 62.5304 0.201552 63.0391 0.560318 63.4142C0.919083 63.7893 1.40567 64 1.91304 64H174.087C174.594 64 175.081 63.7893 175.44 63.4142C175.798 63.0391 176 62.5304 176 62V2.11C175.997 1.5813 175.795 1.07516 175.436 0.702246C175.078 0.329334 174.593 0.119993 174.087 0.12ZM57.3913 60H3.82609V4.11H57.3913V60ZM172.174 60H61.2174V4.11H172.174V60Z" fill="#FFC807"/>
<path d="M12.4348 20.81L25.2522 34.07L25.233 52H28.8009V32.24L14.9313 18.21L12.4348 20.81Z" fill="#FFC807"/>
<path d="M48.7826 20.81L46.2861 18.21L32.407 32.24V52H35.9843L35.9652 34.07L48.7826 20.81Z" fill="#FFC807"/>
<path d="M41.1879 13L30.5992 23.78L20.02 13L17.4948 15.6L30.5992 28.95L43.7131 15.6L41.1879 13Z" fill="#FFC807"/>
<path d="M74.1017 42.3799C73.723 42.3982 73.3446 42.3377 72.9883 42.2021C72.632 42.0665 72.305 41.8585 72.0261 41.5899C71.7546 41.2913 71.5448 40.9374 71.4099 40.5503C71.2749 40.1632 71.2177 39.7512 71.2417 39.3399V24.7999C71.219 24.3903 71.2769 23.9802 71.4118 23.5949C71.5467 23.2097 71.7558 22.8574 72.0261 22.5599C72.3025 22.2876 72.6291 22.0771 72.986 21.9413C73.3429 21.8055 73.7226 21.7472 74.1017 21.7699H77.0574C77.4366 21.7472 77.8162 21.8055 78.1731 21.9413C78.53 22.0771 78.8566 22.2876 79.133 22.5599C79.4016 22.8582 79.6089 23.2109 79.7422 23.5961C79.8754 23.9814 79.9318 24.3911 79.9078 24.7999V28.9999H77.1148V24.9099C77.1148 24.7599 77.0191 24.6899 76.8278 24.6899H74.3313C74.1496 24.6899 74.0539 24.7599 74.0539 24.9099V39.2399C74.0539 39.3999 74.1496 39.4699 74.3313 39.4699H76.8278C77.0191 39.4699 77.1148 39.3999 77.1148 39.2399V35.1799H79.9078V39.3399C79.9331 39.7505 79.8774 40.1621 79.7441 40.5491C79.6109 40.9362 79.4029 41.2905 79.133 41.5899C78.8541 41.8585 78.5271 42.0665 78.1708 42.2021C77.8146 42.3377 77.4361 42.3982 77.0574 42.3799H74.1017Z" fill="#FFC807"/>
<path d="M88.1435 42.38L90.9174 21.77H94.9731L97.7565 42.38H95.0496L94.3609 37.23H91.4913L90.8696 42.38H88.1435ZM92.9261 24.15L92.2087 31.09L91.9122 34.34H93.9496L93.6339 31.09L92.9261 24.15Z" fill="#FFC807"/>
<path d="M105.734 24.8C105.711 24.3904 105.769 23.9803 105.904 23.595C106.039 23.2097 106.248 22.8574 106.518 22.56C106.793 22.288 107.118 22.0776 107.473 21.9417C107.828 21.8058 108.207 21.7474 108.584 21.77H111.569C111.946 21.7486 112.324 21.8076 112.679 21.9434C113.034 22.0792 113.359 22.2889 113.635 22.56C113.903 22.8583 114.111 23.2109 114.244 23.5962C114.377 23.9814 114.434 24.3911 114.41 24.8V29H111.607V24.91C111.607 24.76 111.511 24.69 111.32 24.69H108.823C108.632 24.69 108.537 24.76 108.537 24.91V28.18C108.529 28.5211 108.599 28.8591 108.741 29.1666C108.882 29.4742 109.09 29.7425 109.35 29.95C109.632 30.1792 109.933 30.3833 110.249 30.56L110.775 30.84L111.32 31.13C112.117 31.5184 112.833 32.0691 113.424 32.75C114.099 33.6665 114.438 34.805 114.381 35.96V39.34C114.406 39.7505 114.35 40.1621 114.217 40.5492C114.084 40.9363 113.876 41.2905 113.606 41.59C113.328 41.8573 113.003 42.0646 112.648 42.2002C112.294 42.3358 111.917 42.3969 111.54 42.38H108.546C108.167 42.3982 107.789 42.3378 107.433 42.2022C107.076 42.0666 106.749 41.8585 106.47 41.59C106.201 41.2905 105.993 40.9363 105.859 40.5492C105.726 40.1621 105.67 39.7505 105.696 39.34V35.18H108.498V39.24C108.498 39.4 108.594 39.47 108.785 39.47H111.291C111.483 39.47 111.578 39.4 111.578 39.24V36C111.578 35.6836 111.506 35.3717 111.368 35.0901C111.23 34.8085 111.03 34.5651 110.784 34.38C110.499 34.1487 110.195 33.9446 109.876 33.77L109.34 33.49L108.795 33.18C107.997 32.7618 107.28 32.1921 106.681 31.5C106.008 30.5556 105.67 29.3962 105.724 28.22L105.734 24.8Z" fill="#FFC807"/>
<path d="M123.583 42.38V21.77H126.452V42.38H123.583Z" fill="#FFC807"/>
<path d="M138.189 21.77L141.058 31.97L141.642 34.55L141.46 31.18V21.77H144.167V42.38H141.565L138.696 32.18L138.112 29.34L138.294 32.97V42.38H135.587V21.77H138.189Z" fill="#FFC807"/>
<path d="M159.29 21.7699C159.669 21.7472 160.048 21.8055 160.405 21.9413C160.762 22.0771 161.089 22.2876 161.365 22.5599C161.636 22.8574 161.845 23.2097 161.979 23.5949C162.114 23.9802 162.172 24.3903 162.15 24.7999V39.3399C162.174 39.7512 162.116 40.1632 161.981 40.5503C161.846 40.9374 161.637 41.2913 161.365 41.5899C161.086 41.8585 160.759 42.0665 160.403 42.2021C160.047 42.3377 159.668 42.3982 159.29 42.38H156.315C155.931 42.4098 155.545 42.3527 155.184 42.2125C154.823 42.0723 154.495 41.8523 154.222 41.5676C153.95 41.2828 153.739 40.94 153.605 40.5624C153.471 40.1849 153.417 39.7816 153.445 39.3799V24.7999C153.424 24.3896 153.483 23.9791 153.62 23.5938C153.756 23.2084 153.967 22.8566 154.239 22.5599C154.514 22.2889 154.839 22.0791 155.195 21.9433C155.55 21.8075 155.928 21.7485 156.305 21.7699H159.29ZM156.563 24.6899C156.372 24.6899 156.277 24.7599 156.277 24.9099V39.24C156.277 39.4 156.372 39.4699 156.563 39.4699H159.06C159.242 39.4699 159.337 39.4 159.337 39.24V24.9099C159.337 24.7599 159.242 24.6899 159.06 24.6899H156.563Z" fill="#FFC807"/>
</svg>
