<svg width="128" height="80" viewBox="0 0 128 80" fill="none" xmlns="http://www.w3.org/2000/svg">
<path fill-rule="evenodd" clip-rule="evenodd" d="M85.8775 5.45453H44.0563V10.6095H29.5151V34.7895C29.5151 44.1345 39.3316 51.8245 48.9646 52.6245C52.1269 56.2245 57.6893 58.8395 62.6399 59.9545V66.2745C57.9057 67.8195 49.4493 71.4495 48.9646 75.4045H81.454C80.9646 71.4495 71.6469 67.8145 66.9034 66.2745V59.9545C71.8728 58.8395 77.6846 56.2245 80.8516 52.6245C90.4799 51.8245 99.8634 44.1345 99.8634 34.7895V10.6095H85.8775V5.45453ZM33.981 15.1895H43.7175V36.0195C43.7175 40.1295 44.7151 44.0395 46.4704 47.5595C39.1857 45.0945 33.981 38.7445 33.981 31.3145V15.1895ZM72.1175 40.5945L64.8516 36.3395L57.5763 40.5945L58.9646 31.5945L53.0822 25.2245L61.2093 23.9095L64.8516 15.7295L68.4846 23.9095L76.6116 25.2245L70.7293 31.5945L72.1175 40.5945ZM82.9175 48.2245C84.6822 44.5445 85.694 40.4745 85.694 36.1695V15.3245H95.454V31.2545C95.454 39.0195 90.2257 45.6495 82.9175 48.2245Z" fill="white"/>
</svg>
