<svg width="176" height="64" viewBox="0 0 176 64" fill="none" xmlns="http://www.w3.org/2000/svg">
<path d="M82.0504 32.7701H83.1313C83.7972 32.8326 84.4682 32.7463 85.0998 32.517C85.7314 32.2877 86.3092 31.9206 86.7947 31.4401C87.576 30.399 87.9549 29.0893 87.8565 27.7701V24.1301C87.8791 23.7275 87.8238 23.3243 87.6939 22.9446C87.5641 22.5649 87.3624 22.2164 87.1008 21.9201C86.8278 21.648 86.5047 21.4368 86.1512 21.2993C85.7976 21.1617 85.4211 21.1008 85.0443 21.1201H79.3052V41.5401H82.0791L82.0504 32.7701ZM82.0504 24.0101H84.8052C84.9965 24.0101 85.0921 24.0801 85.0921 24.2301V27.7701C85.158 28.3577 85.0113 28.9498 84.6808 29.4301C84.4652 29.6113 84.2169 29.7454 83.9507 29.8244C83.6845 29.9035 83.4059 29.9258 83.1313 29.8901H82.0504V24.0101Z" fill="#EC1E82"/>
<path d="M99.2391 41.54H102.185C102.56 41.5615 102.935 41.5026 103.287 41.3667C103.639 41.2308 103.961 41.0209 104.232 40.75C104.497 40.4532 104.701 40.1035 104.832 39.7219C104.964 39.3403 105.02 38.9349 104.997 38.53V24.13C105.021 23.7234 104.966 23.316 104.834 22.9326C104.703 22.5493 104.498 22.1979 104.232 21.9C103.959 21.6322 103.637 21.4251 103.285 21.2911C102.933 21.157 102.559 21.0988 102.185 21.12H99.2391C98.8668 21.0996 98.4943 21.1582 98.1442 21.2922C97.794 21.4263 97.4735 21.633 97.2017 21.9C96.9326 22.1962 96.7243 22.5469 96.5894 22.9303C96.4545 23.3138 96.396 23.722 96.4174 24.13V38.53C96.3961 38.9332 96.4529 39.3368 96.5844 39.7166C96.7159 40.0963 96.9193 40.4444 97.1826 40.74C97.4563 41.0111 97.7795 41.2217 98.1329 41.3591C98.4862 41.4966 98.8625 41.5581 99.2391 41.54ZM99.2391 24.23C99.2391 24.08 99.3348 24.01 99.5261 24.01H101.984C102.176 24.01 102.271 24.08 102.271 24.23V38.43C102.271 38.58 102.176 38.66 101.984 38.66H99.4783C99.287 38.66 99.1913 38.58 99.1913 38.43L99.2391 24.23Z" fill="#EC1E82"/>
<path d="M116.935 32.77H117.997C118.273 32.7335 118.553 32.7554 118.821 32.8344C119.089 32.9134 119.339 33.048 119.556 33.23C119.879 33.7137 120.021 34.304 119.957 34.89V41.54H122.731V35.18C122.775 34.2438 122.591 33.3113 122.196 32.47C122.058 32.1624 121.849 31.8963 121.586 31.6969C121.323 31.4974 121.016 31.3712 120.694 31.33C121.016 31.2888 121.323 31.1626 121.586 30.9631C121.849 30.7637 122.058 30.4976 122.196 30.19C122.591 29.3487 122.775 28.4162 122.731 27.48V21.12H119.957V27.77C120.021 28.356 119.879 28.9463 119.556 29.43C119.339 29.612 119.089 29.7466 118.821 29.8256C118.553 29.9046 118.273 29.9265 117.997 29.89H116.935V21.12H114.151V41.54H116.935V32.77Z" fill="#EC1E82"/>
<path d="M139.27 38.66H134.63V32.77H139.27V29.89H134.63V24.01H139.27V21.12H131.857V41.54H139.27V38.66Z" fill="#EC1E82"/>
<path d="M150.48 32.7701H151.561C151.837 32.7347 152.117 32.7571 152.385 32.8361C152.652 32.9151 152.902 33.049 153.12 33.2301C153.443 33.7137 153.586 34.304 153.522 34.8901V41.5401H156.296V35.1801C156.342 34.2426 156.154 33.3086 155.75 32.4701C155.576 32.1396 155.324 31.8613 155.017 31.6618C154.711 31.4622 154.361 31.348 154 31.3301C154.361 31.3121 154.711 31.1979 155.017 30.9984C155.324 30.7988 155.576 30.5205 155.75 30.1901C156.154 29.3515 156.342 28.4175 156.296 27.4801V24.1301C156.317 23.7268 156.26 23.3232 156.129 22.9435C155.997 22.5637 155.794 22.2156 155.53 21.9201C155.257 21.648 154.934 21.4368 154.581 21.2993C154.227 21.1617 153.851 21.1008 153.474 21.1201H147.735V41.5401H150.499L150.48 32.7701ZM150.48 24.0101H153.244C153.426 24.0101 153.522 24.0801 153.522 24.2301V27.7701C153.586 28.3561 153.443 28.9464 153.12 29.4301C152.902 29.6111 152.652 29.745 152.385 29.824C152.117 29.903 151.837 29.9254 151.561 29.8901H150.48V24.0101Z" fill="#EC1E82"/>
<path d="M174.087 0H1.91304C1.40567 0 0.919083 0.210714 0.560318 0.585786C0.201552 0.960859 0 1.46957 0 2L0 62C0 62.5304 0.201552 63.0391 0.560318 63.4142C0.919083 63.7893 1.40567 64 1.91304 64H174.087C174.594 64 175.081 63.7893 175.44 63.4142C175.798 63.0391 176 62.5304 176 62V2C176 1.46957 175.798 0.960859 175.44 0.585786C175.081 0.210714 174.594 0 174.087 0V0ZM57.3913 60H3.82609V4H57.3913V60ZM172.174 60H61.2174V4H172.174V60Z" fill="#EC1E82"/>
<path d="M12.4348 19.81L25.2522 33.07L25.233 51H28.8009V31.24L14.9313 17.21L12.4348 19.81Z" fill="#EC1E82"/>
<path d="M48.7826 19.81L46.286 17.21L32.4069 31.24V51H35.9843L35.9652 33.07L48.7826 19.81Z" fill="#EC1E82"/>
<path d="M41.1879 12L30.5992 22.78L20.02 12L17.4948 14.6L30.5992 27.95L43.7131 14.6L41.1879 12Z" fill="#EC1E82"/>
</svg>
