<?xml version="1.0" encoding="UTF-8" ?>
<!DOCTYPE svg PUBLIC "-//W3C//DTD SVG 1.1//EN" "http://www.w3.org/Graphics/SVG/1.1/DTD/svg11.dtd">
<svg width="550pt" height="182pt" viewBox="0 0 550 182" version="1.1" xmlns="http://www.w3.org/2000/svg">
<g id="#eff5fcfe">
<path fill="#eff5fc" opacity="1.00" d=" M 111.05 49.46 C 120.26 46.92 130.43 47.12 139.31 50.80 C 148.42 54.61 154.96 62.90 158.43 71.96 C 160.87 78.46 162.11 85.33 162.75 92.23 C 163.48 107.39 162.84 123.57 155.01 137.02 C 150.19 145.24 141.94 151.54 132.51 153.30 C 121.24 155.52 108.50 153.93 99.48 146.34 C 93.73 141.69 90.03 135.07 87.47 128.24 C 84.42 118.82 83.54 108.85 83.72 99.00 C 83.82 88.48 85.42 77.84 89.74 68.18 C 93.97 59.43 101.59 52.15 111.05 49.46 M 98.21 60.89 C 96.50 62.45 95.31 64.48 94.02 66.38 C 89.19 74.77 87.29 84.48 86.78 94.05 C 86.00 106.32 87.07 118.85 91.24 130.49 L 91.36 130.45 C 95.09 140.48 103.91 148.65 114.53 150.70 C 122.55 151.79 130.91 151.64 138.51 148.56 L 137.97 148.17 L 138.77 148.74 C 141.95 146.88 145.14 144.93 147.62 142.17 C 160.19 128.35 160.73 108.33 159.79 90.71 L 159.59 91.39 C 159.72 88.95 159.22 86.53 158.84 84.13 C 158.44 82.39 158.04 80.65 157.64 78.91 C 157.29 77.63 156.94 76.35 156.60 75.06 C 154.45 69.43 151.68 63.86 147.24 59.67 C 141.07 53.15 131.79 50.48 123.01 50.66 C 113.85 50.57 104.24 53.72 98.21 60.89 Z" />
<path fill="#eff5fc" opacity="1.00" d=" M 181.81 53.72 C 191.13 47.52 203.18 46.55 213.88 49.05 C 222.49 51.00 229.88 56.82 234.48 64.26 C 239.30 72.28 241.54 81.58 242.37 90.83 C 243.18 100.31 242.91 109.89 241.35 119.28 C 239.21 129.57 234.92 139.98 226.55 146.76 C 216.99 154.42 203.66 155.66 192.06 152.83 C 182.47 150.56 174.51 143.48 170.13 134.78 C 164.21 122.85 163.28 109.21 163.63 96.11 C 163.86 88.43 165.02 80.75 167.52 73.47 C 170.17 65.67 174.88 58.36 181.81 53.72 M 190.45 52.52 L 190.40 52.65 C 184.07 54.49 178.84 59.00 175.09 64.30 C 173.70 66.51 172.46 68.81 171.49 71.23 L 171.32 71.23 C 171.01 71.97 170.70 72.73 170.40 73.48 L 170.55 74.18 C 167.81 79.93 167.16 86.42 166.66 92.69 C 166.58 94.26 166.51 95.82 166.46 97.39 C 166.43 99.57 166.42 101.75 166.38 103.94 C 166.72 108.96 166.86 114.02 167.88 118.97 C 168.08 120.15 168.42 121.31 168.75 122.47 C 170.13 128.27 172.34 134.05 176.19 138.68 L 176.21 138.97 C 177.92 141.61 180.14 143.87 182.74 145.65 C 185.75 147.38 188.91 148.85 192.19 150.04 C 195.75 151.37 199.57 151.52 203.34 151.47 C 211.54 151.25 220.14 149.13 226.19 143.26 C 233.46 136.70 236.85 127.10 238.81 117.75 C 239.03 115.67 239.25 113.59 239.46 111.51 C 240.55 102.00 239.95 92.39 238.48 82.95 C 237.98 80.88 237.48 78.81 236.96 76.74 C 234.48 68.01 229.29 59.93 221.49 55.07 C 217.41 52.77 212.90 51.30 208.23 50.85 C 202.26 50.40 196.19 50.72 190.45 52.52 Z" />
<path fill="#eff5fc" opacity="1.00" d=" M 389.01 51.96 C 398.02 47.72 408.34 47.01 418.09 48.49 C 426.77 49.92 435.35 53.95 440.87 60.99 C 442.15 62.75 443.70 64.65 443.61 66.97 C 442.53 68.05 441.35 69.03 440.16 69.97 C 436.48 72.65 432.90 75.48 429.22 78.17 C 428.12 78.90 426.34 80.21 425.17 78.89 C 422.08 76.20 419.20 72.93 415.03 71.93 C 411.10 71.04 406.65 70.87 403.00 72.82 C 400.74 74.02 399.91 77.31 401.75 79.24 C 404.59 82.52 408.66 84.33 412.48 86.21 C 418.79 89.36 425.36 92.05 431.32 95.86 C 435.69 98.70 439.78 102.22 442.28 106.89 C 446.00 113.70 446.43 121.73 445.52 129.29 C 443.88 136.03 440.11 142.29 434.46 146.40 C 425.75 152.77 414.56 154.71 403.98 154.11 C 392.55 153.60 381.25 148.80 373.46 140.32 C 371.67 138.10 369.45 135.96 368.83 133.08 C 369.30 131.48 370.69 130.45 371.82 129.31 C 375.53 126.05 378.92 122.46 382.55 119.12 C 383.78 118.26 385.64 117.64 386.66 119.19 C 393.28 126.26 402.91 132.54 413.02 130.10 C 415.60 129.16 418.45 127.10 418.03 123.98 C 418.40 121.45 416.54 119.54 414.55 118.37 C 404.71 112.11 393.55 108.03 384.39 100.68 C 380.28 97.33 376.69 93.22 374.58 88.31 C 372.53 82.40 372.10 75.92 373.54 69.82 C 375.56 61.88 381.66 55.36 389.01 51.96 M 382.78 59.60 C 381.09 61.35 379.56 63.25 378.32 65.35 L 378.14 65.34 C 377.37 67.54 376.59 69.73 375.84 71.94 C 375.71 73.55 375.58 75.17 375.45 76.78 C 375.62 80.18 376.13 83.56 376.95 86.86 L 377.35 86.91 C 378.49 91.49 381.90 94.99 385.37 97.98 L 385.35 98.16 C 386.24 98.74 387.14 99.32 388.04 99.91 C 391.86 103.08 396.23 105.70 400.81 107.61 C 405.23 109.95 409.69 112.24 414.16 114.49 C 415.73 115.84 417.45 117.05 419.23 118.12 C 420.55 120.95 421.72 124.27 420.37 127.31 C 419.43 129.86 416.99 131.26 414.81 132.62 C 406.20 135.07 397.44 131.74 390.48 126.71 C 388.43 124.92 386.45 123.07 384.55 121.13 C 382.22 123.39 379.89 125.66 377.61 127.97 C 375.60 129.67 373.63 131.43 371.67 133.19 C 376.68 141.05 384.55 147.55 393.77 149.52 C 393.62 149.67 393.33 149.96 393.19 150.11 C 401.93 151.05 410.85 152.26 419.53 150.05 C 423.46 149.47 427.12 147.85 430.51 145.82 C 436.96 141.64 441.92 134.86 442.84 127.11 C 443.58 119.83 442.70 111.91 438.27 105.86 C 433.72 99.88 426.87 96.38 420.35 93.00 C 419.31 92.57 418.28 92.14 417.26 91.72 C 411.58 88.93 405.60 86.52 400.71 82.40 C 397.81 79.62 397.63 75.28 399.58 71.91 C 400.37 71.54 401.07 70.99 401.79 70.50 C 404.87 69.08 408.21 68.45 411.59 68.48 C 415.84 68.84 419.80 70.49 423.20 73.04 C 424.31 74.40 425.51 75.68 426.76 76.91 C 428.40 75.50 430.05 74.11 431.70 72.70 C 434.78 70.44 437.85 68.16 440.89 65.85 C 435.79 57.56 426.64 52.54 417.14 51.24 C 405.27 49.56 391.94 51.21 382.78 59.60 Z" />
<path fill="#eff5fc" opacity="1.00" d=" M 38.95 50.93 C 42.97 47.84 48.33 49.74 52.98 49.22 C 55.27 49.58 59.25 48.10 60.11 51.09 C 60.48 77.58 60.21 104.09 60.29 130.59 C 63.09 130.61 65.89 130.63 68.69 130.60 C 70.68 130.73 72.86 130.24 74.71 131.20 C 76.14 132.52 75.64 134.64 75.78 136.36 C 75.72 140.58 75.85 144.81 75.75 149.03 C 75.87 150.45 74.99 151.60 74.32 152.76 C 56.28 152.70 38.24 152.76 20.20 152.81 C 18.77 152.78 16.81 152.41 16.70 150.64 C 16.41 146.07 16.73 141.48 16.59 136.91 C 16.76 134.93 15.97 132.26 18.02 131.00 C 20.07 130.23 22.38 130.75 24.52 130.61 C 27.04 130.63 29.56 130.61 32.08 130.60 C 32.14 119.65 32.12 108.70 32.11 97.76 C 32.19 92.50 32.26 87.24 32.12 81.98 C 27.03 84.90 22.04 87.99 16.89 90.80 C 15.97 89.96 14.34 89.41 14.34 87.96 C 14.06 81.58 14.34 75.19 14.21 68.80 C 14.02 67.31 14.57 65.74 15.99 65.05 C 23.61 60.29 31.32 55.68 38.95 50.93 M 40.28 53.37 C 36.05 55.99 31.92 58.79 27.51 61.08 L 27.55 61.50 C 24.19 63.07 21.11 65.14 17.96 67.07 L 18.22 67.77 L 17.11 67.02 C 16.91 71.91 17.05 76.79 17.00 81.67 C 17.03 83.58 17.08 85.49 17.14 87.40 C 20.50 85.07 24.43 83.70 27.69 81.22 C 29.51 80.33 31.26 79.29 33.09 78.42 C 33.50 78.06 34.33 77.34 34.74 76.98 C 34.79 78.39 34.86 79.79 34.92 81.20 C 34.96 82.61 34.97 84.02 34.98 85.43 C 34.68 88.91 34.73 92.40 35.02 95.88 C 35.00 98.22 35.00 100.57 35.00 102.92 C 34.92 111.48 34.53 120.09 35.25 128.63 C 35.11 130.28 35.00 131.94 34.89 133.60 C 31.05 133.53 27.21 133.53 23.37 133.51 C 22.05 133.47 20.73 133.43 19.41 133.40 C 19.41 135.54 19.42 137.68 19.40 139.82 C 19.34 143.21 19.35 146.60 19.41 149.99 C 32.68 150.08 45.96 149.84 59.23 150.11 C 63.68 150.25 68.15 150.30 72.58 149.82 L 72.80 150.72 C 73.17 145.01 72.89 139.28 72.85 133.56 C 72.29 133.54 71.18 133.49 70.63 133.47 C 67.98 133.41 65.32 133.42 62.67 133.48 C 61.38 133.52 60.09 133.57 58.80 133.61 C 58.48 133.39 57.84 132.96 57.52 132.74 C 57.55 127.25 57.58 121.76 57.50 116.28 C 57.46 111.33 57.55 106.39 57.32 101.45 C 57.84 92.96 57.33 84.42 57.51 75.91 C 57.37 67.87 57.48 59.82 57.45 51.78 C 57.28 51.89 56.96 52.12 56.80 52.24 C 51.35 52.31 45.26 50.63 40.28 53.37 Z" />
<path fill="#eff5fc" opacity="1.00" d=" M 282.22 49.36 C 289.50 49.04 296.80 49.33 304.08 49.21 C 305.51 49.21 307.94 49.10 308.10 51.08 C 308.59 72.36 307.99 93.67 308.45 114.94 C 308.55 121.41 311.41 129.45 318.75 130.43 C 321.25 130.77 323.81 130.70 326.30 130.21 C 333.35 128.04 335.31 119.81 335.40 113.29 C 335.54 93.85 335.45 74.41 335.47 54.98 C 335.54 53.04 334.89 50.15 337.31 49.34 C 345.46 49.02 353.64 49.40 361.79 49.16 C 364.92 51.37 363.25 55.56 363.65 58.77 C 363.63 72.17 363.68 85.57 363.65 98.97 C 363.57 108.93 364.29 119.10 361.39 128.78 C 358.70 137.78 352.43 145.82 343.83 149.81 C 332.88 154.96 320.18 155.09 308.48 152.89 C 309.20 152.09 309.92 151.28 310.63 150.47 C 321.70 152.07 333.47 151.71 343.79 147.03 C 352.81 142.76 357.68 133.15 359.62 123.78 C 361.77 112.73 360.43 101.38 360.74 90.19 C 360.65 77.46 360.96 64.73 360.78 52.00 C 353.27 52.00 345.76 52.00 338.25 52.02 C 338.28 59.81 338.27 67.61 338.27 75.40 C 338.26 83.34 338.24 91.28 338.23 99.22 C 338.24 104.51 338.39 109.80 338.15 115.09 C 337.66 120.41 336.19 125.79 332.59 129.88 C 329.72 132.23 326.11 133.40 322.44 133.56 C 320.46 133.41 318.50 133.19 316.55 132.85 C 311.08 131.36 307.56 126.33 306.35 121.02 C 305.78 117.53 305.52 114.00 305.47 110.47 C 305.46 101.57 305.44 92.66 305.49 83.76 C 305.49 83.03 305.50 81.56 305.50 80.83 C 305.51 77.43 305.53 74.02 305.49 70.62 C 305.51 64.44 305.51 58.27 305.41 52.10 C 301.47 51.97 297.53 51.94 293.59 52.00 C 290.06 52.02 286.53 52.01 283.01 52.00 C 283.01 54.12 283.01 56.24 283.00 58.36 C 282.95 64.20 282.82 70.04 282.96 75.88 C 283.05 83.98 282.96 92.07 283.06 100.16 C 282.88 110.47 282.14 121.20 286.07 130.97 C 288.93 138.20 294.54 144.33 301.68 147.50 C 304.25 148.76 307.03 149.48 309.82 150.10 C 308.58 150.86 307.32 151.60 306.03 152.27 C 296.34 149.59 287.98 142.60 283.97 133.34 C 281.08 126.65 280.18 119.30 280.10 112.06 C 280.04 92.73 280.17 73.41 280.08 54.08 C 279.97 52.36 280.03 49.68 282.22 49.36 Z" />
<path fill="#eff5fc" opacity="1.00" d=" M 454.31 49.39 C 467.19 49.00 480.11 49.35 493.00 49.22 C 505.64 49.13 519.11 53.84 526.47 64.63 C 532.09 72.99 534.48 83.08 535.02 93.03 C 535.46 103.22 535.09 113.56 532.50 123.47 C 530.15 132.46 525.09 141.07 517.02 146.02 C 507.20 152.13 495.23 153.09 483.95 152.75 C 474.02 152.59 464.09 152.88 454.16 152.73 C 452.01 151.10 452.65 148.31 452.56 145.97 C 452.60 116.88 452.58 87.78 452.59 58.69 C 453.14 55.68 451.16 51.23 454.31 49.39 M 455.39 52.02 C 455.55 70.15 455.20 88.29 455.43 106.42 C 455.40 112.35 455.43 118.27 455.37 124.20 C 455.36 127.05 455.13 129.93 455.55 132.77 C 455.25 138.47 455.50 144.19 455.38 149.90 C 455.96 149.97 457.12 150.10 457.70 150.17 C 459.17 150.14 460.65 150.10 462.13 150.04 C 465.46 149.96 468.79 149.99 472.13 150.00 C 476.00 150.37 479.89 150.34 483.77 149.99 C 494.61 150.42 505.61 148.91 515.44 144.15 L 515.45 143.91 C 517.12 142.62 518.74 141.25 520.30 139.83 C 527.80 132.58 530.39 122.02 531.85 112.06 C 532.80 99.77 532.67 87.17 528.94 75.31 L 528.84 75.40 C 525.70 66.09 518.54 58.21 509.26 54.80 C 506.49 53.96 503.70 53.23 500.87 52.67 C 496.28 51.94 491.62 51.89 486.98 51.98 C 481.51 52.04 476.04 51.98 470.58 52.01 C 465.51 51.93 460.45 51.93 455.39 52.02 Z" />
<path fill="#eff5fc" opacity="1.00" d=" M 116.62 68.73 C 119.74 67.32 123.33 65.99 126.72 67.37 C 131.07 68.70 133.13 73.12 134.93 76.90 C 136.28 81.56 137.03 86.37 137.29 91.21 C 137.39 93.13 137.46 95.06 137.53 96.98 C 137.86 102.24 137.55 107.50 137.07 112.73 C 136.96 114.09 136.84 115.45 136.70 116.81 C 136.10 122.01 134.66 127.22 131.62 131.56 C 129.06 134.03 125.58 135.79 121.92 135.16 C 117.69 134.81 114.65 131.37 112.83 127.82 C 110.69 122.97 110.08 117.65 109.56 112.43 C 109.21 108.19 109.15 103.93 109.08 99.68 C 108.99 94.56 109.27 89.42 110.12 84.36 C 110.75 81.07 111.65 77.83 112.83 74.69 C 113.81 72.54 115.09 70.54 116.62 68.73 M 114.09 79.12 C 111.59 89.42 111.36 100.24 112.37 110.74 C 112.61 116.98 113.42 123.62 116.82 129.00 C 119.28 133.18 125.84 133.77 128.98 130.05 C 132.51 126.02 133.32 120.40 133.97 115.27 C 135.29 103.64 135.34 91.68 132.85 80.20 C 131.77 75.67 129.41 69.77 123.99 69.48 C 118.46 68.86 115.17 74.48 114.09 79.12 Z" />
<path fill="#eff5fc" opacity="1.00" d=" M 193.70 72.41 C 195.82 68.30 200.35 66.08 204.92 66.84 C 205.47 67.03 206.56 67.42 207.11 67.61 C 211.00 69.02 213.17 72.76 214.36 76.52 C 215.18 79.11 215.87 81.75 216.42 84.41 C 217.68 93.22 217.83 102.17 217.07 111.03 C 216.80 114.46 216.38 117.87 215.74 121.25 C 215.47 122.44 215.18 123.62 214.84 124.79 C 213.21 129.59 210.01 134.44 204.63 135.34 C 201.89 135.38 199.14 134.87 196.83 133.37 C 194.44 131.09 192.76 128.21 191.64 125.12 C 189.95 119.55 189.25 113.72 188.98 107.91 C 188.96 107.24 188.92 105.90 188.90 105.24 C 188.84 101.98 188.87 98.73 189.03 95.48 C 189.20 92.73 189.39 89.99 189.63 87.25 C 189.76 85.83 189.93 84.42 190.17 83.02 C 190.95 79.37 192.18 75.82 193.70 72.41 M 195.69 74.65 C 192.40 81.49 192.06 89.33 191.79 96.79 C 191.72 105.80 191.68 114.97 194.17 123.70 C 194.98 126.70 196.67 129.35 198.90 131.49 C 201.57 132.67 204.47 132.70 207.18 131.61 C 212.22 127.46 213.34 120.44 213.84 114.30 C 215.19 104.30 214.89 94.06 213.51 84.07 C 212.58 79.06 211.37 73.14 206.69 70.27 C 202.61 68.00 197.41 70.56 195.69 74.65 Z" />
<path fill="#eff5fc" opacity="1.00" d=" M 477.88 69.79 C 482.91 70.18 487.95 70.24 493.00 70.03 C 498.71 69.88 504.53 73.15 506.70 78.56 C 507.49 80.69 508.15 82.87 508.73 85.06 C 509.82 89.59 510.01 94.26 510.05 98.90 C 510.05 99.63 510.05 101.09 510.05 101.82 C 509.92 109.10 509.17 116.56 506.24 123.30 C 504.42 127.43 500.61 130.43 496.22 131.37 C 491.92 132.12 487.54 132.16 483.20 132.11 C 481.44 132.11 479.68 132.10 477.93 132.10 C 478.26 124.74 477.91 117.39 477.91 110.03 C 477.90 108.18 477.90 106.33 477.90 104.49 C 478.07 92.92 477.84 81.36 477.88 69.79 M 480.78 72.80 C 480.78 78.60 480.73 84.40 480.80 90.20 C 480.72 103.21 480.79 116.21 480.78 129.22 C 482.39 129.23 484.00 129.23 485.61 129.24 C 491.81 129.54 499.45 129.33 503.03 123.31 C 506.87 116.01 507.12 107.48 507.06 99.42 C 507.00 91.59 507.17 82.55 501.77 76.25 C 496.14 71.05 487.74 73.06 480.78 72.80 Z" />
</g>
<g id="#0001023b">
<path fill="#000102" opacity="0.23" d=" M 60.11 51.09 C 60.42 52.69 60.58 54.36 61.25 55.86 C 62.61 57.98 64.90 59.48 65.71 61.95 C 68.28 68.32 67.24 75.28 67.40 81.96 C 67.53 90.17 67.01 98.40 67.90 106.58 C 66.87 114.60 67.45 122.65 68.69 130.60 C 65.89 130.63 63.09 130.61 60.29 130.59 C 60.21 104.09 60.48 77.58 60.11 51.09 Z" />
<path fill="#000102" opacity="0.23" d=" M 308.10 51.08 C 308.34 56.04 313.29 58.37 315.09 62.52 C 315.59 67.69 316.63 72.83 316.38 78.05 C 316.29 93.05 316.35 108.06 316.35 123.06 C 316.17 125.76 317.51 128.15 318.75 130.43 C 311.41 129.45 308.55 121.41 308.45 114.94 C 307.99 93.67 308.59 72.36 308.10 51.08 Z" />
<path fill="#000102" opacity="0.23" d=" M 272.63 65.99 C 272.25 60.70 276.66 57.33 280.08 54.08 C 280.17 73.41 280.04 92.73 280.10 112.06 C 280.18 119.30 281.08 126.65 283.97 133.34 C 283.45 134.00 282.41 135.31 281.90 135.96 C 284.83 142.10 287.39 148.72 292.45 153.48 C 294.69 155.59 296.81 157.90 299.48 159.48 C 311.26 164.24 324.56 165.46 336.83 161.84 C 341.68 160.17 347.48 160.17 351.20 156.18 C 354.55 152.75 358.72 149.22 358.86 144.03 C 360.58 142.31 362.57 140.58 362.93 138.02 C 364.11 134.83 362.29 131.76 361.39 128.78 C 364.29 119.10 363.57 108.93 363.65 98.97 C 363.68 85.57 363.63 72.17 363.65 58.77 C 368.91 60.24 369.31 66.90 373.54 69.82 C 372.10 75.92 372.53 82.40 374.58 88.31 C 372.07 95.94 374.88 105.11 381.49 109.78 C 383.57 111.24 385.66 112.68 387.55 114.40 C 394.77 121.64 406.53 121.87 413.02 130.10 C 402.91 132.54 393.28 126.26 386.66 119.19 C 385.64 117.64 383.78 118.26 382.55 119.12 C 379.17 116.12 376.58 111.21 371.53 111.09 C 370.71 114.35 369.62 117.62 369.67 121.03 C 369.84 123.90 370.93 126.60 371.82 129.31 C 370.69 130.45 369.30 131.48 368.83 133.08 C 369.45 135.96 371.67 138.10 373.46 140.32 C 372.36 143.24 371.62 146.66 373.29 149.53 C 376.67 155.16 382.31 159.52 388.91 160.51 C 398.30 163.37 408.36 164.90 418.05 162.59 C 422.41 161.39 426.86 160.49 431.18 159.16 C 434.93 158.08 435.66 153.62 438.02 150.97 C 442.63 144.91 448.30 137.29 445.52 129.29 C 446.43 121.73 446.00 113.70 442.28 106.89 C 446.57 104.43 445.72 99.15 445.51 94.96 C 445.37 92.81 444.18 90.95 443.27 89.07 C 438.80 90.37 434.70 92.65 431.32 95.86 C 425.36 92.05 418.79 89.36 412.48 86.21 C 417.49 83.40 421.92 88.70 427.00 88.35 C 432.36 88.10 436.70 84.16 439.84 80.13 C 442.38 77.25 440.34 73.30 440.16 69.97 C 441.35 69.03 442.53 68.05 443.61 66.97 C 444.28 66.76 445.63 66.33 446.30 66.12 C 448.08 63.39 449.27 59.90 452.59 58.69 C 452.58 87.78 452.60 116.88 452.56 145.97 C 452.65 148.31 452.01 151.10 454.16 152.73 C 454.36 154.87 454.52 157.02 454.66 159.18 C 458.33 160.72 462.04 162.70 466.15 162.56 C 470.78 162.32 475.37 163.39 479.99 162.85 C 486.72 162.09 493.58 163.20 500.24 161.63 C 512.17 159.64 523.56 152.03 528.19 140.58 C 528.85 141.00 529.52 141.43 530.19 141.85 C 532.17 136.42 533.84 130.87 534.72 125.15 C 534.16 124.73 533.06 123.89 532.50 123.47 C 535.09 113.56 535.46 103.22 535.02 93.03 C 534.48 83.08 532.09 72.99 526.47 64.63 C 528.74 64.78 529.86 67.10 531.19 68.64 C 533.69 72.46 535.96 76.45 538.06 80.51 C 545.41 100.14 544.76 122.12 538.69 141.99 C 533.62 154.40 523.17 165.10 510.04 168.69 C 506.07 169.70 502.18 171.38 498.02 171.31 C 492.66 171.29 487.40 172.77 482.02 172.33 C 473.31 171.89 464.38 173.39 455.86 170.92 C 450.74 169.98 447.85 165.27 444.18 162.08 C 439.61 161.98 436.66 165.88 432.77 167.61 C 416.19 175.79 395.73 175.03 379.53 166.25 C 375.56 164.09 372.32 160.91 368.89 158.04 C 367.27 156.57 365.06 155.88 362.91 156.32 C 361.42 157.30 360.14 158.55 358.82 159.75 C 353.53 164.77 347.08 168.58 340.16 170.87 C 331.59 172.78 322.72 174.32 313.95 172.81 C 303.97 171.92 294.17 167.96 286.55 161.43 C 278.92 153.98 274.18 143.71 273.09 133.12 C 270.52 119.88 272.16 106.35 271.65 92.96 C 272.46 83.97 270.88 74.92 272.63 65.99 Z" />
<path fill="#000102" opacity="0.23" d=" M 329.77 60.59 C 331.29 58.37 333.47 56.73 335.47 54.98 C 335.45 74.41 335.54 93.85 335.40 113.29 C 335.31 119.81 333.35 128.04 326.30 130.21 C 327.23 126.90 327.82 123.48 327.69 120.02 C 327.50 103.68 327.73 87.34 327.61 71.00 C 327.58 67.45 327.94 63.71 329.77 60.59 Z" />
<path fill="#000102" opacity="0.23" d=" M 234.48 64.26 C 235.52 64.92 236.67 65.49 237.45 66.48 C 242.81 73.32 245.63 81.69 247.81 89.99 C 248.80 93.93 249.51 97.96 249.40 102.04 C 249.20 107.00 251.18 111.87 250.18 116.83 C 249.13 121.82 249.72 127.00 248.48 131.96 C 245.99 144.23 240.22 156.35 230.04 164.03 C 220.71 171.80 207.80 173.11 196.13 172.24 C 187.69 170.54 179.03 167.46 172.98 161.06 C 170.02 158.20 167.50 154.86 164.16 152.41 C 161.36 151.54 159.63 154.34 158.04 156.11 C 145.23 173.86 118.58 177.05 100.16 166.62 C 94.55 163.74 91.20 158.03 85.73 154.95 C 82.36 158.73 81.59 164.28 77.54 167.52 C 73.76 170.50 68.77 171.51 64.05 171.43 C 51.71 171.35 39.37 171.41 27.03 171.41 C 21.34 171.36 14.82 169.56 11.86 164.25 C 8.52 159.58 9.61 153.56 9.73 148.19 C 9.93 143.48 12.58 139.31 16.59 136.91 C 16.73 141.48 16.41 146.07 16.70 150.64 C 16.81 152.41 18.77 152.78 20.20 152.81 C 19.82 154.82 18.32 157.28 19.83 159.12 C 24.36 160.70 29.23 160.78 33.98 160.81 C 44.35 160.73 54.71 160.82 65.08 160.78 C 67.74 160.69 70.96 160.76 72.69 158.33 C 73.66 156.62 73.82 154.61 74.32 152.76 C 74.99 151.60 75.87 150.45 75.75 149.03 C 75.85 144.81 75.72 140.58 75.78 136.36 C 76.71 135.59 77.63 134.83 78.56 134.08 C 78.90 129.70 77.71 125.47 76.83 121.24 C 75.88 111.45 76.82 101.61 78.37 91.93 C 79.90 84.94 83.15 78.49 86.16 72.05 C 86.91 70.40 87.81 68.65 89.74 68.18 C 85.42 77.84 83.82 88.48 83.72 99.00 C 83.54 108.85 84.42 118.82 87.47 128.24 C 84.64 134.34 87.75 140.77 90.81 146.08 C 93.97 151.43 97.63 157.23 103.75 159.49 C 113.04 162.01 122.77 163.91 132.39 162.13 C 137.17 161.09 141.17 158.10 145.75 156.52 C 149.26 155.40 151.39 152.15 153.05 149.08 C 155.54 144.12 158.17 138.95 163.00 135.83 C 165.14 137.34 167.40 138.84 168.82 141.12 C 171.84 145.79 174.77 150.52 177.87 155.14 C 183.98 156.38 188.58 161.32 194.84 162.14 C 202.69 163.22 211.09 163.35 218.37 159.79 C 222.80 158.12 225.97 154.50 229.08 151.11 C 227.28 153.28 225.62 155.62 224.89 158.39 C 233.77 153.28 237.98 143.09 240.43 133.61 C 241.85 128.96 241.64 124.07 241.35 119.28 C 242.91 109.89 243.18 100.31 242.37 90.83 C 241.54 81.58 239.30 72.28 234.48 64.26 Z" />
<path fill="#000102" opacity="0.23" d=" M 8.59 77.19 C 9.44 73.83 11.80 71.17 14.21 68.80 C 14.34 75.19 14.06 81.58 14.34 87.96 C 14.34 89.41 15.97 89.96 16.89 90.80 C 21.28 94.45 26.87 95.84 32.11 97.76 C 32.12 108.70 32.14 119.65 32.08 130.60 C 29.56 130.61 27.04 130.63 24.52 130.61 C 24.62 123.72 24.77 116.80 24.40 109.92 C 22.74 106.12 18.36 105.58 14.77 105.00 C 11.01 103.14 7.54 99.45 7.55 95.01 C 7.56 89.07 7.03 82.99 8.59 77.19 Z" />
<path fill="#000102" opacity="0.23" d=" M 158.43 71.96 C 159.78 72.85 161.09 73.80 162.36 74.80 C 164.09 74.40 165.80 73.95 167.52 73.47 C 165.02 80.75 163.86 88.43 163.63 96.11 C 163.35 94.81 163.06 93.52 162.75 92.23 C 162.11 85.33 160.87 78.46 158.43 71.96 Z" />
<path fill="#000102" opacity="0.23" d=" M 197.78 83.55 C 200.67 82.67 203.95 81.62 206.85 83.04 C 209.88 84.73 211.98 87.82 213.04 91.07 C 214.59 98.73 213.96 106.55 213.84 114.30 C 213.34 120.44 212.22 127.46 207.18 131.61 C 207.64 125.09 208.56 118.62 208.64 112.07 C 209.54 106.10 209.10 100.01 207.58 94.18 C 207.19 92.88 206.66 91.54 205.63 90.61 C 204.05 90.33 202.39 90.32 200.87 90.83 C 196.30 96.16 197.99 103.58 197.61 109.99 C 197.11 117.20 198.87 124.29 198.90 131.49 C 196.67 129.35 194.98 126.70 194.17 123.70 C 191.68 114.97 191.72 105.80 191.79 96.79 C 194.65 92.81 196.24 88.15 197.78 83.55 Z" />
<path fill="#000102" opacity="0.23" d=" M 114.99 89.34 C 116.70 86.47 119.19 82.97 122.97 83.24 C 128.73 82.90 132.53 88.93 133.45 93.96 C 133.87 101.05 133.27 108.18 133.97 115.27 C 133.32 120.40 132.51 126.02 128.98 130.05 C 125.84 133.77 119.28 133.18 116.82 129.00 C 113.42 123.62 112.61 116.98 112.37 110.74 C 114.10 103.74 113.11 96.33 114.99 89.34 M 119.04 107.03 C 117.62 112.37 119.76 117.68 119.41 123.06 C 119.15 126.63 120.57 130.55 124.12 131.95 C 126.97 129.04 127.98 125.03 127.53 121.04 C 126.83 115.35 129.47 109.73 127.99 104.10 C 127.05 99.96 126.38 95.64 124.14 91.95 C 118.54 94.75 120.00 101.91 119.04 107.03 Z" />
<path fill="#000102" opacity="0.23" d=" M 487.49 84.17 C 491.55 82.43 495.91 84.44 499.38 86.57 C 503.87 89.34 505.78 94.57 507.06 99.42 C 507.12 107.48 506.87 116.01 503.03 123.31 C 500.59 119.30 502.47 114.63 502.81 110.34 C 503.78 104.74 503.12 98.70 500.03 93.83 C 498.06 90.82 494.78 88.18 490.98 88.65 C 488.04 88.44 485.87 91.09 485.06 93.63 C 483.49 105.50 486.37 117.36 485.61 129.24 C 484.00 129.23 482.39 129.23 480.78 129.22 C 480.79 116.21 480.72 103.21 480.80 90.20 C 482.24 87.48 484.43 85.03 487.49 84.17 Z" />
</g>
<g id="#3e93e8ff">
<path fill="#3e93e8" opacity="1.00" d=" M 98.21 60.89 C 104.24 53.72 113.85 50.57 123.01 50.66 C 131.79 50.48 141.07 53.15 147.24 59.67 C 151.68 63.86 154.45 69.43 156.60 75.06 C 155.99 75.16 154.78 75.37 154.17 75.47 C 151.74 73.69 149.15 70.22 145.76 71.69 C 142.48 73.72 143.24 79.89 147.04 80.98 C 150.69 82.34 154.31 80.22 157.64 78.91 C 158.04 80.65 158.44 82.39 158.84 84.13 C 157.67 85.51 156.37 86.82 155.52 88.44 C 154.53 91.00 157.35 92.52 158.78 94.14 C 158.98 93.45 159.39 92.08 159.59 91.39 L 159.79 90.71 C 160.73 108.33 160.19 128.35 147.62 142.17 C 143.14 137.48 137.59 134.03 131.62 131.56 C 134.66 127.22 136.10 122.01 136.70 116.81 C 140.76 118.41 146.14 120.28 149.79 116.81 C 153.10 113.84 151.69 107.38 146.86 107.23 C 143.47 106.47 142.21 110.17 140.75 112.41 C 139.52 112.52 138.29 112.63 137.07 112.73 C 137.55 107.50 137.86 102.24 137.53 96.98 C 140.01 94.12 143.00 91.80 146.07 89.62 C 143.05 89.41 140.09 90.11 137.29 91.21 C 137.03 86.37 136.28 81.56 134.93 76.90 C 135.57 75.48 137.78 73.58 135.88 72.18 C 131.65 67.71 126.96 63.41 121.28 60.87 C 113.92 57.76 105.75 59.41 98.21 60.89 Z" />
<path fill="#3e93e8" opacity="1.00" d=" M 190.45 52.52 C 196.19 50.72 202.26 50.40 208.23 50.85 C 204.90 54.09 201.76 58.09 202.10 63.03 C 201.53 65.09 203.31 66.18 204.92 66.84 C 200.35 66.08 195.82 68.30 193.70 72.41 C 186.62 69.70 178.85 72.42 171.49 71.23 C 172.46 68.81 173.70 66.51 175.09 64.30 C 178.30 64.41 181.72 64.21 184.45 62.32 C 187.75 60.13 189.24 56.26 190.40 52.65 L 190.45 52.52 Z" />
<path fill="#3e93e8" opacity="1.00" d=" M 382.78 59.60 C 391.94 51.21 405.27 49.56 417.14 51.24 C 426.64 52.54 435.79 57.56 440.89 65.85 C 437.85 68.16 434.78 70.44 431.70 72.70 C 428.91 71.23 425.86 71.35 423.20 73.04 C 419.80 70.49 415.84 68.84 411.59 68.48 C 407.71 64.01 402.50 60.55 396.63 59.48 C 392.03 58.79 387.38 59.33 382.78 59.60 Z" />
<path fill="#3e93e8" opacity="1.00" d=" M 56.80 52.24 C 56.96 52.12 57.28 51.89 57.45 51.78 C 57.48 59.82 57.37 67.87 57.51 75.91 C 53.01 82.12 47.63 88.16 46.21 95.95 C 45.39 101.12 44.65 107.69 49.51 111.16 C 51.55 102.94 50.58 93.03 57.18 86.71 C 56.39 90.46 54.82 93.97 53.66 97.62 C 52.59 101.01 52.90 104.61 53.17 108.10 C 54.62 105.92 56.06 103.74 57.32 101.45 C 57.55 106.39 57.46 111.33 57.50 116.28 C 52.83 122.44 52.07 130.61 53.08 138.05 C 53.30 140.62 55.13 142.56 56.68 144.46 C 57.55 140.88 58.22 137.25 58.80 133.61 C 60.09 133.57 61.38 133.52 62.67 133.48 C 62.83 135.43 62.99 137.38 63.16 139.34 C 65.88 137.70 68.39 135.73 70.63 133.47 C 71.18 133.49 72.29 133.54 72.85 133.56 C 72.89 139.28 73.17 145.01 72.80 150.72 L 72.58 149.82 C 72.28 146.13 72.58 142.39 71.77 138.75 C 67.07 141.91 62.79 145.69 59.23 150.11 C 45.96 149.84 32.68 150.08 19.41 149.99 C 19.35 146.60 19.34 143.21 19.40 139.82 C 21.88 141.78 24.65 143.35 27.65 144.42 C 25.34 141.17 23.77 137.49 23.37 133.51 C 27.21 133.53 31.05 133.53 34.89 133.60 C 35.00 131.94 35.11 130.28 35.25 128.63 C 35.82 131.70 37.28 134.88 36.24 138.02 C 35.26 140.33 33.59 142.25 32.16 144.29 C 37.29 142.80 41.52 138.52 42.31 133.14 C 43.80 125.53 38.62 118.95 36.94 111.85 C 35.95 108.68 37.27 105.47 37.98 102.40 C 36.99 102.57 35.99 102.74 35.00 102.92 C 35.00 100.57 35.00 98.22 35.02 95.88 C 35.83 94.29 37.04 92.80 37.25 90.98 C 36.83 89.01 35.85 87.23 34.98 85.43 C 34.97 84.02 34.96 82.61 34.92 81.20 C 37.34 82.39 39.86 84.42 42.72 83.62 C 47.06 81.26 46.64 73.98 42.20 71.91 C 36.19 69.08 29.06 70.97 23.62 74.23 C 26.50 76.19 29.74 77.52 33.09 78.42 C 31.26 79.29 29.51 80.33 27.69 81.22 C 24.12 81.33 20.55 81.38 17.00 81.67 C 17.05 76.79 16.91 71.91 17.11 67.02 L 18.22 67.77 C 19.20 70.22 19.94 72.75 20.74 75.26 C 24.71 71.90 28.12 66.92 27.55 61.50 L 27.51 61.08 C 31.92 58.79 36.05 55.99 40.28 53.37 C 43.82 54.92 47.75 55.93 51.63 55.39 C 53.57 54.77 55.13 53.36 56.80 52.24 M 40.91 58.71 C 36.80 60.47 32.63 63.13 30.74 67.36 C 37.04 66.62 42.66 70.88 48.93 69.84 C 53.01 69.24 56.00 63.38 52.92 60.15 C 49.61 57.38 44.80 57.01 40.91 58.71 Z" />
<path fill="#3e93e8" opacity="1.00" d=" M 283.01 52.00 C 286.53 52.01 290.06 52.02 293.59 52.00 C 293.98 60.29 299.22 67.16 300.82 75.17 C 302.37 73.65 303.92 72.13 305.49 70.62 C 305.53 74.02 305.51 77.43 305.50 80.83 C 302.08 81.33 298.69 81.96 295.34 82.75 C 295.00 76.07 295.25 68.59 290.88 63.04 C 289.01 60.45 285.84 59.48 283.00 58.36 C 283.01 56.24 283.01 54.12 283.01 52.00 Z" />
<path fill="#3e93e8" opacity="1.00" d=" M 338.25 52.02 C 345.76 52.00 353.27 52.00 360.78 52.00 C 360.96 64.73 360.65 77.46 360.74 90.19 C 359.14 85.50 356.80 80.97 353.03 77.66 C 352.45 84.22 353.76 91.34 350.25 97.30 C 347.10 103.83 340.70 108.22 338.15 115.09 C 338.39 109.80 338.24 104.51 338.23 99.22 C 341.45 94.03 345.45 89.05 346.67 82.93 C 347.98 75.86 347.20 68.44 344.42 61.81 C 343.13 66.65 341.43 71.44 338.27 75.40 C 338.27 67.61 338.28 59.81 338.25 52.02 Z" />
<path fill="#3e93e8" opacity="1.00" d=" M 470.58 52.01 C 476.04 51.98 481.51 52.04 486.98 51.98 C 482.86 55.92 481.07 61.87 482.60 67.42 C 482.89 70.37 486.55 69.05 488.56 69.34 C 488.50 67.12 488.46 64.90 488.41 62.68 C 491.45 64.11 495.14 67.13 498.37 64.36 C 502.64 62.06 501.38 56.56 500.87 52.67 C 503.70 53.23 506.49 53.96 509.26 54.80 C 508.04 55.79 506.82 56.78 505.60 57.77 C 505.57 58.08 505.51 58.68 505.48 58.99 C 509.63 60.90 510.48 65.40 511.79 69.29 C 513.01 73.03 517.41 73.65 520.52 75.11 C 516.15 77.06 511.46 78.14 506.70 78.56 C 504.53 73.15 498.71 69.88 493.00 70.03 C 487.95 70.24 482.91 70.18 477.88 69.79 C 477.84 81.36 478.07 92.92 477.90 104.49 C 476.71 104.46 475.52 104.43 474.35 104.40 C 474.13 107.19 474.20 110.13 476.48 112.10 C 476.84 111.58 477.55 110.55 477.91 110.03 C 477.91 117.39 478.26 124.74 477.93 132.10 C 479.68 132.10 481.44 132.11 483.20 132.11 C 484.32 135.91 486.36 140.99 491.08 140.88 C 495.46 141.25 498.30 136.39 497.56 132.47 C 497.23 132.20 496.55 131.65 496.22 131.37 C 500.61 130.43 504.42 127.43 506.24 123.30 C 509.17 116.56 509.92 109.10 510.05 101.82 C 516.39 108.84 519.44 118.59 518.32 127.98 C 518.07 133.42 515.24 138.42 515.45 143.91 L 515.44 144.15 C 505.61 148.91 494.61 150.42 483.77 149.99 C 481.84 144.77 474.50 145.61 472.13 150.00 C 468.79 149.99 465.46 149.96 462.13 150.04 C 463.86 141.07 462.17 130.73 455.37 124.20 C 455.43 118.27 455.40 112.35 455.43 106.42 C 457.47 103.86 459.54 101.02 459.54 97.58 C 460.26 91.40 456.20 86.13 455.63 80.13 C 459.50 81.78 463.62 84.28 467.97 83.06 C 471.21 82.49 474.21 80.15 474.87 76.82 C 475.58 74.63 474.45 71.64 471.91 71.43 C 466.61 70.73 461.26 71.64 455.96 71.90 C 455.90 69.63 455.86 67.35 455.83 65.08 C 459.51 64.02 463.79 63.56 466.47 60.51 C 468.75 58.21 469.61 55.00 470.58 52.01 M 460.90 88.59 C 464.03 94.19 470.88 97.51 477.08 94.96 C 476.99 92.00 478.57 88.09 476.06 85.82 C 470.89 85.53 466.19 88.96 460.90 88.59 M 459.21 107.98 C 458.17 111.77 463.43 115.38 466.16 112.17 C 470.62 107.58 468.10 100.75 464.84 96.28 C 462.31 99.78 460.18 103.76 459.21 107.98 M 471.02 125.07 C 468.12 128.27 466.83 135.73 471.99 137.24 C 474.69 136.99 477.03 134.71 477.23 131.99 C 477.60 127.51 477.38 123.01 477.14 118.53 C 474.46 120.04 472.82 122.69 471.02 125.07 Z" />
<path fill="#3e93e8" opacity="1.00" d=" M 221.49 55.07 C 229.29 59.93 234.48 68.01 236.96 76.74 C 233.03 77.55 229.07 78.60 225.03 78.44 C 221.41 78.20 217.90 77.23 214.36 76.52 C 213.17 72.76 211.00 69.02 207.11 67.61 C 207.67 66.03 208.25 64.45 208.82 62.87 C 211.51 64.23 214.64 66.86 217.69 64.82 C 221.71 63.31 221.58 58.62 221.49 55.07 Z" />
<path fill="#3e93e8" opacity="1.00" d=" M 94.02 66.38 C 101.56 65.64 109.97 63.93 116.62 68.73 C 115.09 70.54 113.81 72.54 112.83 74.69 C 106.39 74.67 99.81 74.32 94.13 70.93 C 94.94 78.96 103.08 82.97 110.12 84.36 C 109.27 89.42 108.99 94.56 109.08 99.68 C 106.41 103.39 104.58 107.62 104.04 112.18 C 105.88 112.26 107.72 112.35 109.56 112.43 C 110.08 117.65 110.69 122.97 112.83 127.82 C 105.61 127.43 98.15 127.74 91.36 130.45 L 91.24 130.49 C 87.07 118.85 86.00 106.32 86.78 94.05 C 87.29 84.48 89.19 74.77 94.02 66.38 M 96.17 89.10 C 92.50 93.59 93.77 99.85 95.06 105.01 C 95.81 108.16 97.77 111.86 101.43 112.00 C 103.44 105.52 107.45 98.91 105.24 91.93 C 104.44 88.03 98.96 85.82 96.17 89.10 M 96.33 115.35 C 94.34 116.96 94.84 120.25 95.61 122.40 C 97.86 125.04 102.75 123.86 103.44 120.37 C 104.88 116.36 99.65 113.04 96.33 115.35 Z" />
<path fill="#3e93e8" opacity="1.00" d=" M 378.14 65.34 L 378.32 65.35 C 382.85 65.46 387.48 65.14 391.91 66.30 C 395.30 67.47 398.28 69.62 401.79 70.50 C 401.07 70.99 400.37 71.54 399.58 71.91 C 391.96 74.61 383.29 75.81 375.84 71.94 C 376.59 69.73 377.37 67.54 378.14 65.34 Z" />
<path fill="#3e93e8" opacity="1.00" d=" M 170.40 73.48 C 173.15 76.10 175.42 79.25 178.56 81.43 C 181.98 83.72 186.27 83.43 190.17 83.02 C 189.93 84.42 189.76 85.83 189.63 87.25 C 186.70 87.81 183.77 88.29 180.83 88.74 C 182.96 91.65 185.76 93.95 189.03 95.48 C 188.87 98.73 188.84 101.98 188.90 105.24 C 187.99 102.27 186.75 99.42 185.49 96.59 C 182.32 98.58 181.14 102.35 179.82 105.64 C 178.75 108.24 178.88 112.19 182.10 113.12 C 185.59 114.33 187.52 110.34 188.98 107.91 C 189.25 113.72 189.95 119.55 191.64 125.12 C 188.41 127.71 187.27 132.75 189.82 136.18 C 192.51 138.37 195.64 135.96 196.83 133.37 C 199.14 134.87 201.89 135.38 204.63 135.34 C 205.63 137.00 206.31 138.97 207.84 140.24 C 211.02 141.75 215.83 140.73 217.10 137.13 C 218.55 132.95 217.69 128.18 214.84 124.79 C 215.18 123.62 215.47 122.44 215.74 121.25 C 219.48 121.79 223.67 123.25 227.19 121.18 C 229.35 119.00 229.38 114.99 227.09 112.89 C 224.71 110.68 221.49 109.85 218.45 108.99 C 218.10 109.50 217.41 110.52 217.07 111.03 C 217.83 102.17 217.68 93.22 216.42 84.41 C 223.79 86.19 231.29 84.88 238.48 82.95 C 239.95 92.39 240.55 102.00 239.46 111.51 C 235.32 106.54 232.09 100.85 227.38 96.37 C 227.09 96.58 226.51 96.99 226.22 97.20 C 228.56 100.40 231.37 103.23 233.54 106.56 C 235.57 110.15 236.82 114.13 238.81 117.75 C 236.85 127.10 233.46 136.70 226.19 143.26 C 220.14 149.13 211.54 151.25 203.34 151.47 C 203.06 150.05 202.78 148.63 202.52 147.22 C 200.57 146.85 198.59 146.12 196.60 146.52 C 194.59 146.82 193.52 148.74 192.19 150.04 C 188.91 148.85 185.75 147.38 182.74 145.65 C 183.49 134.45 177.85 122.74 168.19 116.87 C 168.11 117.39 167.96 118.44 167.88 118.97 C 166.86 114.02 166.72 108.96 166.38 103.94 C 168.21 105.11 170.00 106.43 172.06 107.19 C 175.90 107.16 178.42 103.39 179.18 100.00 C 180.34 94.21 178.87 87.92 175.12 83.33 C 172.67 88.27 170.09 93.19 166.46 97.39 C 166.51 95.82 166.58 94.26 166.66 92.69 C 170.98 87.70 172.52 80.49 170.55 74.18 L 170.40 73.48 Z" />
<path fill="#3e93e8" opacity="1.00" d=" M 528.84 75.40 L 528.94 75.31 C 532.67 87.17 532.80 99.77 531.85 112.06 C 530.39 122.02 527.80 132.58 520.30 139.83 C 520.87 132.81 522.68 125.75 521.26 118.72 C 519.88 111.02 514.46 105.05 510.05 98.90 C 510.01 94.26 509.82 89.59 508.73 85.06 C 516.29 84.08 523.39 80.75 528.84 75.40 Z" />
<path fill="#3e93e8" opacity="1.00" d=" M 282.96 75.88 C 287.30 76.81 292.66 79.70 291.25 85.05 C 288.55 90.10 284.48 94.46 283.06 100.16 C 282.96 92.07 283.05 83.98 282.96 75.88 Z" />
<path fill="#3e93e8" opacity="1.00" d=" M 375.45 76.78 C 378.66 79.20 381.81 81.93 385.70 83.21 C 390.62 84.68 395.96 84.28 400.71 82.40 C 405.60 86.52 411.58 88.93 417.26 91.72 C 412.13 98.15 410.78 106.92 414.16 114.49 C 409.69 112.24 405.23 109.95 400.81 107.61 C 403.56 105.00 407.05 102.15 407.09 98.01 C 406.45 94.21 402.16 91.41 398.41 92.52 C 394.10 93.49 390.99 96.86 388.04 99.91 C 387.14 99.32 386.24 98.74 385.35 98.16 L 385.37 97.98 C 385.65 95.22 386.00 92.14 384.20 89.78 C 382.82 87.35 379.72 87.47 377.35 86.91 L 376.95 86.86 C 376.13 83.56 375.62 80.18 375.45 76.78 Z" />
<path fill="#3e93e8" opacity="1.00" d=" M 292.24 89.30 C 295.51 85.40 300.56 83.90 305.49 83.76 C 305.44 92.66 305.46 101.57 305.47 110.47 C 299.54 115.88 296.67 124.05 297.89 132.00 C 298.01 137.76 301.77 143.41 307.70 144.40 C 302.54 137.94 301.64 127.94 306.35 121.02 C 307.56 126.33 311.08 131.36 316.55 132.85 C 317.10 137.30 314.97 141.11 312.11 144.31 C 317.49 143.17 320.99 138.64 322.44 133.56 C 326.11 133.40 329.72 132.23 332.59 129.88 C 332.64 134.99 332.49 140.77 336.65 144.48 C 338.05 138.77 338.76 132.90 340.54 127.29 C 342.39 122.30 345.71 117.95 349.72 114.50 C 347.50 122.79 342.78 130.53 342.81 139.31 C 350.00 136.05 354.41 129.36 359.62 123.78 C 357.68 133.15 352.81 142.76 343.79 147.03 C 333.47 151.71 321.70 152.07 310.63 150.47 C 309.92 151.28 309.20 152.09 308.48 152.89 C 307.65 152.71 306.84 152.50 306.03 152.27 C 307.32 151.60 308.58 150.86 309.82 150.10 C 307.03 149.48 304.25 148.76 301.68 147.50 C 303.10 147.13 304.52 146.76 305.95 146.40 C 303.30 144.62 300.55 142.99 297.87 141.27 C 291.92 137.59 288.15 131.22 286.15 124.66 C 282.66 112.86 283.88 98.82 292.24 89.30 Z" />
<path fill="#3e93e8" opacity="1.00" d=" M 420.35 93.00 C 426.87 96.38 433.72 99.88 438.27 105.86 C 442.70 111.91 443.58 119.83 442.84 127.11 C 441.92 134.86 436.96 141.64 430.51 145.82 C 426.48 140.14 420.71 136.14 414.81 132.62 C 416.99 131.26 419.43 129.86 420.37 127.31 C 421.72 124.27 420.55 120.95 419.23 118.12 C 423.07 118.98 428.26 119.63 430.64 115.68 C 432.93 112.51 431.01 107.37 426.88 107.25 C 423.17 106.38 422.13 110.89 420.43 113.19 C 418.79 111.83 417.03 110.30 416.91 108.01 C 415.64 102.72 417.20 97.30 420.35 93.00 Z" />
<path fill="#3e93e8" opacity="1.00" d=" M 384.55 121.13 C 386.45 123.07 388.43 124.92 390.48 126.71 C 386.22 127.41 381.92 127.85 377.61 127.97 C 379.89 125.66 382.22 123.39 384.55 121.13 Z" />
<path fill="#3e93e8" opacity="1.00" d=" M 168.75 122.47 C 173.38 126.49 176.40 132.47 176.19 138.68 C 172.34 134.05 170.13 128.27 168.75 122.47 Z" />
<path fill="#3e93e8" opacity="1.00" d=" M 455.38 149.90 C 455.50 144.19 455.25 138.47 455.55 132.77 C 457.68 138.33 457.90 144.29 457.70 150.17 C 457.12 150.10 455.96 149.97 455.38 149.90 Z" />
<path fill="#3e93e8" opacity="1.00" d=" M 101.91 136.13 C 114.84 135.89 127.94 139.88 137.97 148.17 L 138.51 148.56 C 130.91 151.64 122.55 151.79 114.53 150.70 C 116.29 148.74 114.86 146.14 113.85 144.21 C 111.39 139.74 106.18 138.26 101.91 136.13 Z" />
<path fill="#3e93e8" opacity="1.00" d=" M 381.97 136.08 C 395.52 136.11 409.91 140.04 419.53 150.05 C 410.85 152.26 401.93 151.05 393.19 150.11 C 393.33 149.96 393.62 149.67 393.77 149.52 C 394.06 149.21 394.66 148.58 394.96 148.27 C 394.78 141.18 387.34 138.59 381.97 136.08 Z" />
</g>
<g id="#2673ddff">
<path fill="#2673dd" opacity="1.00" d=" M 208.23 50.85 C 212.90 51.30 217.41 52.77 221.49 55.07 C 221.58 58.62 221.71 63.31 217.69 64.82 C 214.64 66.86 211.51 64.23 208.82 62.87 C 208.25 64.45 207.67 66.03 207.11 67.61 C 206.56 67.42 205.47 67.03 204.92 66.84 C 203.31 66.18 201.53 65.09 202.10 63.03 C 201.76 58.09 204.90 54.09 208.23 50.85 Z" />
<path fill="#2673dd" opacity="1.00" d=" M 40.28 53.37 C 45.26 50.63 51.35 52.31 56.80 52.24 C 55.13 53.36 53.57 54.77 51.63 55.39 C 47.75 55.93 43.82 54.92 40.28 53.37 Z" />
<path fill="#2673dd" opacity="1.00" d=" M 293.59 52.00 C 297.53 51.94 301.47 51.97 305.41 52.10 C 305.51 58.27 305.51 64.44 305.49 70.62 C 303.92 72.13 302.37 73.65 300.82 75.17 C 299.22 67.16 293.98 60.29 293.59 52.00 Z" />
<path fill="#2673dd" opacity="1.00" d=" M 455.39 52.02 C 460.45 51.93 465.51 51.93 470.58 52.01 C 469.61 55.00 468.75 58.21 466.47 60.51 C 463.79 63.56 459.51 64.02 455.83 65.08 C 455.86 67.35 455.90 69.63 455.96 71.90 C 461.26 71.64 466.61 70.73 471.91 71.43 C 474.45 71.64 475.58 74.63 474.87 76.82 C 474.21 80.15 471.21 82.49 467.97 83.06 C 463.62 84.28 459.50 81.78 455.63 80.13 C 456.20 86.13 460.26 91.40 459.54 97.58 C 459.54 101.02 457.47 103.86 455.43 106.42 C 455.20 88.29 455.55 70.15 455.39 52.02 Z" />
<path fill="#2673dd" opacity="1.00" d=" M 486.98 51.98 C 491.62 51.89 496.28 51.94 500.87 52.67 C 501.38 56.56 502.64 62.06 498.37 64.36 C 495.14 67.13 491.45 64.11 488.41 62.68 C 488.46 64.90 488.50 67.12 488.56 69.34 C 486.55 69.05 482.89 70.37 482.60 67.42 C 481.07 61.87 482.86 55.92 486.98 51.98 Z" />
<path fill="#2673dd" opacity="1.00" d=" M 175.09 64.30 C 178.84 59.00 184.07 54.49 190.40 52.65 C 189.24 56.26 187.75 60.13 184.45 62.32 C 181.72 64.21 178.30 64.41 175.09 64.30 Z" />
<path fill="#2673dd" opacity="1.00" d=" M 509.26 54.80 C 518.54 58.21 525.70 66.09 528.84 75.40 C 523.39 80.75 516.29 84.08 508.73 85.06 C 508.15 82.87 507.49 80.69 506.70 78.56 C 511.46 78.14 516.15 77.06 520.52 75.11 C 517.41 73.65 513.01 73.03 511.79 69.29 C 510.48 65.40 509.63 60.90 505.48 58.99 C 505.51 58.68 505.57 58.08 505.60 57.77 C 506.82 56.78 508.04 55.79 509.26 54.80 Z" />
<path fill="#2673dd" opacity="1.00" d=" M 40.91 58.71 C 44.80 57.01 49.61 57.38 52.92 60.15 C 56.00 63.38 53.01 69.24 48.93 69.84 C 42.66 70.88 37.04 66.62 30.74 67.36 C 32.63 63.13 36.80 60.47 40.91 58.71 Z" />
<path fill="#2673dd" opacity="1.00" d=" M 98.21 60.89 C 105.75 59.41 113.92 57.76 121.28 60.87 C 126.96 63.41 131.65 67.71 135.88 72.18 C 137.78 73.58 135.57 75.48 134.93 76.90 C 133.13 73.12 131.07 68.70 126.72 67.37 C 123.33 65.99 119.74 67.32 116.62 68.73 C 109.97 63.93 101.56 65.64 94.02 66.38 C 95.31 64.48 96.50 62.45 98.21 60.89 Z" />
<path fill="#2673dd" opacity="1.00" d=" M 283.00 58.36 C 285.84 59.48 289.01 60.45 290.88 63.04 C 295.25 68.59 295.00 76.07 295.34 82.75 C 298.69 81.96 302.08 81.33 305.50 80.83 C 305.50 81.56 305.49 83.03 305.49 83.76 C 300.56 83.90 295.51 85.40 292.24 89.30 C 283.88 98.82 282.66 112.86 286.15 124.66 C 288.15 131.22 291.92 137.59 297.87 141.27 C 300.55 142.99 303.30 144.62 305.95 146.40 C 304.52 146.76 303.10 147.13 301.68 147.50 C 294.54 144.33 288.93 138.20 286.07 130.97 C 282.14 121.20 282.88 110.47 283.06 100.16 C 284.48 94.46 288.55 90.10 291.25 85.05 C 292.66 79.70 287.30 76.81 282.96 75.88 C 282.82 70.04 282.95 64.20 283.00 58.36 Z" />
<path fill="#2673dd" opacity="1.00" d=" M 382.78 59.60 C 387.38 59.33 392.03 58.79 396.63 59.48 C 402.50 60.55 407.71 64.01 411.59 68.48 C 408.21 68.45 404.87 69.08 401.79 70.50 C 398.28 69.62 395.30 67.47 391.91 66.30 C 387.48 65.14 382.85 65.46 378.32 65.35 C 379.56 63.25 381.09 61.35 382.78 59.60 Z" />
<path fill="#2673dd" opacity="1.00" d=" M 17.96 67.07 C 21.11 65.14 24.19 63.07 27.55 61.50 C 28.12 66.92 24.71 71.90 20.74 75.26 C 19.94 72.75 19.20 70.22 18.22 67.77 L 17.96 67.07 Z" />
<path fill="#2673dd" opacity="1.00" d=" M 344.42 61.81 C 347.20 68.44 347.98 75.86 346.67 82.93 C 345.45 89.05 341.45 94.03 338.23 99.22 C 338.24 91.28 338.26 83.34 338.27 75.40 C 341.43 71.44 343.13 66.65 344.42 61.81 Z" />
<path fill="#2673dd" opacity="1.00" d=" M 23.62 74.23 C 29.06 70.97 36.19 69.08 42.20 71.91 C 46.64 73.98 47.06 81.26 42.72 83.62 C 39.86 84.42 37.34 82.39 34.92 81.20 C 34.86 79.79 34.79 78.39 34.74 76.98 C 34.33 77.34 33.50 78.06 33.09 78.42 C 29.74 77.52 26.50 76.19 23.62 74.23 Z" />
<path fill="#2673dd" opacity="1.00" d=" M 94.13 70.93 C 99.81 74.32 106.39 74.67 112.83 74.69 C 111.65 77.83 110.75 81.07 110.12 84.36 C 103.08 82.97 94.94 78.96 94.13 70.93 Z" />
<path fill="#2673dd" opacity="1.00" d=" M 145.76 71.69 C 149.15 70.22 151.74 73.69 154.17 75.47 C 154.78 75.37 155.99 75.16 156.60 75.06 C 156.94 76.35 157.29 77.63 157.64 78.91 C 154.31 80.22 150.69 82.34 147.04 80.98 C 143.24 79.89 142.48 73.72 145.76 71.69 Z" />
<path fill="#2673dd" opacity="1.00" d=" M 171.32 71.23 L 171.49 71.23 C 178.85 72.42 186.62 69.70 193.70 72.41 C 192.18 75.82 190.95 79.37 190.17 83.02 C 186.27 83.43 181.98 83.72 178.56 81.43 C 175.42 79.25 173.15 76.10 170.40 73.48 C 170.70 72.73 171.01 71.97 171.32 71.23 Z" />
<path fill="#2673dd" opacity="1.00" d=" M 423.20 73.04 C 425.86 71.35 428.91 71.23 431.70 72.70 C 430.05 74.11 428.40 75.50 426.76 76.91 C 425.51 75.68 424.31 74.40 423.20 73.04 Z" />
<path fill="#2673dd" opacity="1.00" d=" M 375.84 71.94 C 383.29 75.81 391.96 74.61 399.58 71.91 C 397.63 75.28 397.81 79.62 400.71 82.40 C 395.96 84.28 390.62 84.68 385.70 83.21 C 381.81 81.93 378.66 79.20 375.45 76.78 C 375.58 75.17 375.71 73.55 375.84 71.94 Z" />
<path fill="#2673dd" opacity="1.00" d=" M 170.55 74.18 C 172.52 80.49 170.98 87.70 166.66 92.69 C 167.16 86.42 167.81 79.93 170.55 74.18 Z" />
<path fill="#2673dd" opacity="1.00" d=" M 46.21 95.95 C 47.63 88.16 53.01 82.12 57.51 75.91 C 57.33 84.42 57.84 92.96 57.32 101.45 C 56.06 103.74 54.62 105.92 53.17 108.10 C 52.90 104.61 52.59 101.01 53.66 97.62 C 54.82 93.97 56.39 90.46 57.18 86.71 C 50.58 93.03 51.55 102.94 49.51 111.16 C 44.65 107.69 45.39 101.12 46.21 95.95 Z" />
<path fill="#2673dd" opacity="1.00" d=" M 214.36 76.52 C 217.90 77.23 221.41 78.20 225.03 78.44 C 229.07 78.60 233.03 77.55 236.96 76.74 C 237.48 78.81 237.98 80.88 238.48 82.95 C 231.29 84.88 223.79 86.19 216.42 84.41 C 215.87 81.75 215.18 79.11 214.36 76.52 Z" />
<path fill="#2673dd" opacity="1.00" d=" M 353.03 77.66 C 356.80 80.97 359.14 85.50 360.74 90.19 C 360.43 101.38 361.77 112.73 359.62 123.78 C 354.41 129.36 350.00 136.05 342.81 139.31 C 342.78 130.53 347.50 122.79 349.72 114.50 C 345.71 117.95 342.39 122.30 340.54 127.29 C 338.76 132.90 338.05 138.77 336.65 144.48 C 332.49 140.77 332.64 134.99 332.59 129.88 C 336.19 125.79 337.66 120.41 338.15 115.09 C 340.70 108.22 347.10 103.83 350.25 97.30 C 353.76 91.34 352.45 84.22 353.03 77.66 Z" />
<path fill="#2673dd" opacity="1.00" d=" M 17.00 81.67 C 20.55 81.38 24.12 81.33 27.69 81.22 C 24.43 83.70 20.50 85.07 17.14 87.40 C 17.08 85.49 17.03 83.58 17.00 81.67 Z" />
<path fill="#2673dd" opacity="1.00" d=" M 166.46 97.39 C 170.09 93.19 172.67 88.27 175.12 83.33 C 178.87 87.92 180.34 94.21 179.18 100.00 C 178.42 103.39 175.90 107.16 172.06 107.19 C 170.00 106.43 168.21 105.11 166.38 103.94 C 166.42 101.75 166.43 99.57 166.46 97.39 Z" />
<path fill="#2673dd" opacity="1.00" d=" M 155.52 88.44 C 156.37 86.82 157.67 85.51 158.84 84.13 C 159.22 86.53 159.72 88.95 159.59 91.39 C 159.39 92.08 158.98 93.45 158.78 94.14 C 157.35 92.52 154.53 91.00 155.52 88.44 Z" />
<path fill="#2673dd" opacity="1.00" d=" M 34.98 85.43 C 35.85 87.23 36.83 89.01 37.25 90.98 C 37.04 92.80 35.83 94.29 35.02 95.88 C 34.73 92.40 34.68 88.91 34.98 85.43 Z" />
<path fill="#2673dd" opacity="1.00" d=" M 460.90 88.59 C 466.19 88.96 470.89 85.53 476.06 85.82 C 478.57 88.09 476.99 92.00 477.08 94.96 C 470.88 97.51 464.03 94.19 460.90 88.59 Z" />
<path fill="#2673dd" opacity="1.00" d=" M 96.17 89.10 C 98.96 85.82 104.44 88.03 105.24 91.93 C 107.45 98.91 103.44 105.52 101.43 112.00 C 97.77 111.86 95.81 108.16 95.06 105.01 C 93.77 99.85 92.50 93.59 96.17 89.10 Z" />
<path fill="#2673dd" opacity="1.00" d=" M 180.83 88.74 C 183.77 88.29 186.70 87.81 189.63 87.25 C 189.39 89.99 189.20 92.73 189.03 95.48 C 185.76 93.95 182.96 91.65 180.83 88.74 Z" />
<path fill="#2673dd" opacity="1.00" d=" M 377.35 86.91 C 379.72 87.47 382.82 87.35 384.20 89.78 C 386.00 92.14 385.65 95.22 385.37 97.98 C 381.90 94.99 378.49 91.49 377.35 86.91 Z" />
<path fill="#2673dd" opacity="1.00" d=" M 137.29 91.21 C 140.09 90.11 143.05 89.41 146.07 89.62 C 143.00 91.80 140.01 94.12 137.53 96.98 C 137.46 95.06 137.39 93.13 137.29 91.21 Z" />
<path fill="#2673dd" opacity="1.00" d=" M 398.41 92.52 C 402.16 91.41 406.45 94.21 407.09 98.01 C 407.05 102.15 403.56 105.00 400.81 107.61 C 396.23 105.70 391.86 103.08 388.04 99.91 C 390.99 96.86 394.10 93.49 398.41 92.52 Z" />
<path fill="#2673dd" opacity="1.00" d=" M 417.26 91.72 C 418.28 92.14 419.31 92.57 420.35 93.00 C 417.20 97.30 415.64 102.72 416.91 108.01 C 417.03 110.30 418.79 111.83 420.43 113.19 C 422.13 110.89 423.17 106.38 426.88 107.25 C 431.01 107.37 432.93 112.51 430.64 115.68 C 428.26 119.63 423.07 118.98 419.23 118.12 C 417.45 117.05 415.73 115.84 414.16 114.49 C 410.78 106.92 412.13 98.15 417.26 91.72 Z" />
<path fill="#2673dd" opacity="1.00" d=" M 226.22 97.20 C 226.51 96.99 227.09 96.58 227.38 96.37 C 232.09 100.85 235.32 106.54 239.46 111.51 C 239.25 113.59 239.03 115.67 238.81 117.75 C 236.82 114.13 235.57 110.15 233.54 106.56 C 231.37 103.23 228.56 100.40 226.22 97.20 Z" />
<path fill="#2673dd" opacity="1.00" d=" M 179.82 105.64 C 181.14 102.35 182.32 98.58 185.49 96.59 C 186.75 99.42 187.99 102.27 188.90 105.24 C 188.92 105.90 188.96 107.24 188.98 107.91 C 187.52 110.34 185.59 114.33 182.10 113.12 C 178.88 112.19 178.75 108.24 179.82 105.64 Z" />
<path fill="#2673dd" opacity="1.00" d=" M 459.21 107.98 C 460.18 103.76 462.31 99.78 464.84 96.28 C 468.10 100.75 470.62 107.58 466.16 112.17 C 463.43 115.38 458.17 111.77 459.21 107.98 Z" />
<path fill="#2673dd" opacity="1.00" d=" M 510.05 98.90 C 514.46 105.05 519.88 111.02 521.26 118.72 C 522.68 125.75 520.87 132.81 520.30 139.83 C 518.74 141.25 517.12 142.62 515.45 143.91 C 515.24 138.42 518.07 133.42 518.32 127.98 C 519.44 118.59 516.39 108.84 510.05 101.82 C 510.05 101.09 510.05 99.63 510.05 98.90 Z" />
<path fill="#2673dd" opacity="1.00" d=" M 104.04 112.18 C 104.58 107.62 106.41 103.39 109.08 99.68 C 109.15 103.93 109.21 108.19 109.56 112.43 C 107.72 112.35 105.88 112.26 104.04 112.18 Z" />
<path fill="#2673dd" opacity="1.00" d=" M 35.00 102.92 C 35.99 102.74 36.99 102.57 37.98 102.40 C 37.27 105.47 35.95 108.68 36.94 111.85 C 38.62 118.95 43.80 125.53 42.31 133.14 C 41.52 138.52 37.29 142.80 32.16 144.29 C 33.59 142.25 35.26 140.33 36.24 138.02 C 37.28 134.88 35.82 131.70 35.25 128.63 C 34.53 120.09 34.92 111.48 35.00 102.92 Z" />
<path fill="#2673dd" opacity="1.00" d=" M 474.35 104.40 C 475.52 104.43 476.71 104.46 477.90 104.49 C 477.90 106.33 477.90 108.18 477.91 110.03 C 477.55 110.55 476.84 111.58 476.48 112.10 C 474.20 110.13 474.13 107.19 474.35 104.40 Z" />
<path fill="#2673dd" opacity="1.00" d=" M 140.75 112.41 C 142.21 110.17 143.47 106.47 146.86 107.23 C 151.69 107.38 153.10 113.84 149.79 116.81 C 146.14 120.28 140.76 118.41 136.70 116.81 C 136.84 115.45 136.96 114.09 137.07 112.73 C 138.29 112.63 139.52 112.52 140.75 112.41 Z" />
<path fill="#2673dd" opacity="1.00" d=" M 218.45 108.99 C 221.49 109.85 224.71 110.68 227.09 112.89 C 229.38 114.99 229.35 119.00 227.19 121.18 C 223.67 123.25 219.48 121.79 215.74 121.25 C 216.38 117.87 216.80 114.46 217.07 111.03 C 217.41 110.52 218.10 109.50 218.45 108.99 Z" />
<path fill="#2673dd" opacity="1.00" d=" M 305.47 110.47 C 305.52 114.00 305.78 117.53 306.35 121.02 C 301.64 127.94 302.54 137.94 307.70 144.40 C 301.77 143.41 298.01 137.76 297.89 132.00 C 296.67 124.05 299.54 115.88 305.47 110.47 Z" />
<path fill="#2673dd" opacity="1.00" d=" M 96.33 115.35 C 99.65 113.04 104.88 116.36 103.44 120.37 C 102.75 123.86 97.86 125.04 95.61 122.40 C 94.84 120.25 94.34 116.96 96.33 115.35 Z" />
<path fill="#2673dd" opacity="1.00" d=" M 53.08 138.05 C 52.07 130.61 52.83 122.44 57.50 116.28 C 57.58 121.76 57.55 127.25 57.52 132.74 C 57.84 132.96 58.48 133.39 58.80 133.61 C 58.22 137.25 57.55 140.88 56.68 144.46 C 55.13 142.56 53.30 140.62 53.08 138.05 Z" />
<path fill="#2673dd" opacity="1.00" d=" M 168.19 116.87 C 177.85 122.74 183.49 134.45 182.74 145.65 C 180.14 143.87 177.92 141.61 176.21 138.97 L 176.19 138.68 C 176.40 132.47 173.38 126.49 168.75 122.47 C 168.42 121.31 168.08 120.15 167.88 118.97 C 167.96 118.44 168.11 117.39 168.19 116.87 Z" />
<path fill="#2673dd" opacity="1.00" d=" M 471.02 125.07 C 472.82 122.69 474.46 120.04 477.14 118.53 C 477.38 123.01 477.60 127.51 477.23 131.99 C 477.03 134.71 474.69 136.99 471.99 137.24 C 466.83 135.73 468.12 128.27 471.02 125.07 Z" />
<path fill="#2673dd" opacity="1.00" d=" M 455.37 124.20 C 462.17 130.73 463.86 141.07 462.13 150.04 C 460.65 150.10 459.17 150.14 457.70 150.17 C 457.90 144.29 457.68 138.33 455.55 132.77 C 455.13 129.93 455.36 127.05 455.37 124.20 Z" />
<path fill="#2673dd" opacity="1.00" d=" M 189.82 136.18 C 187.27 132.75 188.41 127.71 191.64 125.12 C 192.76 128.21 194.44 131.09 196.83 133.37 C 195.64 135.96 192.51 138.37 189.82 136.18 Z" />
<path fill="#2673dd" opacity="1.00" d=" M 204.63 135.34 C 210.01 134.44 213.21 129.59 214.84 124.79 C 217.69 128.18 218.55 132.95 217.10 137.13 C 215.83 140.73 211.02 141.75 207.84 140.24 C 206.31 138.97 205.63 137.00 204.63 135.34 Z" />
<path fill="#2673dd" opacity="1.00" d=" M 377.61 127.97 C 381.92 127.85 386.22 127.41 390.48 126.71 C 397.44 131.74 406.20 135.07 414.81 132.62 C 420.71 136.14 426.48 140.14 430.51 145.82 C 427.12 147.85 423.46 149.47 419.53 150.05 C 409.91 140.04 395.52 136.11 381.97 136.08 C 387.34 138.59 394.78 141.18 394.96 148.27 C 394.66 148.58 394.06 149.21 393.77 149.52 C 384.55 147.55 376.68 141.05 371.67 133.19 C 373.63 131.43 375.60 129.67 377.61 127.97 Z" />
<path fill="#2673dd" opacity="1.00" d=" M 91.36 130.45 C 98.15 127.74 105.61 127.43 112.83 127.82 C 114.65 131.37 117.69 134.81 121.92 135.16 C 125.58 135.79 129.06 134.03 131.62 131.56 C 137.59 134.03 143.14 137.48 147.62 142.17 C 145.14 144.93 141.95 146.88 138.77 148.74 L 137.97 148.17 C 127.94 139.88 114.84 135.89 101.91 136.13 C 106.18 138.26 111.39 139.74 113.85 144.21 C 114.86 146.14 116.29 148.74 114.53 150.70 C 103.91 148.65 95.09 140.48 91.36 130.45 Z" />
<path fill="#2673dd" opacity="1.00" d=" M 483.20 132.11 C 487.54 132.16 491.92 132.12 496.22 131.37 C 496.55 131.65 497.23 132.20 497.56 132.47 C 498.30 136.39 495.46 141.25 491.08 140.88 C 486.36 140.99 484.32 135.91 483.20 132.11 Z" />
<path fill="#2673dd" opacity="1.00" d=" M 316.55 132.85 C 318.50 133.19 320.46 133.41 322.44 133.56 C 320.99 138.64 317.49 143.17 312.11 144.31 C 314.97 141.11 317.10 137.30 316.55 132.85 Z" />
<path fill="#2673dd" opacity="1.00" d=" M 19.41 133.40 C 20.73 133.43 22.05 133.47 23.37 133.51 C 23.77 137.49 25.34 141.17 27.65 144.42 C 24.65 143.35 21.88 141.78 19.40 139.82 C 19.42 137.68 19.41 135.54 19.41 133.40 Z" />
<path fill="#2673dd" opacity="1.00" d=" M 62.67 133.48 C 65.32 133.42 67.98 133.41 70.63 133.47 C 68.39 135.73 65.88 137.70 63.16 139.34 C 62.99 137.38 62.83 135.43 62.67 133.48 Z" />
<path fill="#2673dd" opacity="1.00" d=" M 71.77 138.75 C 72.58 142.39 72.28 146.13 72.58 149.82 C 68.15 150.30 63.68 150.25 59.23 150.11 C 62.79 145.69 67.07 141.91 71.77 138.75 Z" />
<path fill="#2673dd" opacity="1.00" d=" M 196.60 146.52 C 198.59 146.12 200.57 146.85 202.52 147.22 C 202.78 148.63 203.06 150.05 203.34 151.47 C 199.57 151.52 195.75 151.37 192.19 150.04 C 193.52 148.74 194.59 146.82 196.60 146.52 Z" />
<path fill="#2673dd" opacity="1.00" d=" M 472.13 150.00 C 474.50 145.61 481.84 144.77 483.77 149.99 C 479.89 150.34 476.00 150.37 472.13 150.00 Z" />
</g>
<g id="#0204079f">
<path fill="#020407" opacity="0.62" d=" M 114.09 79.12 C 115.17 74.48 118.46 68.86 123.99 69.48 C 129.41 69.77 131.77 75.67 132.85 80.20 C 135.34 91.68 135.29 103.64 133.97 115.27 C 133.27 108.18 133.87 101.05 133.45 93.96 C 132.53 88.93 128.73 82.90 122.97 83.24 C 119.19 82.97 116.70 86.47 114.99 89.34 C 113.11 96.33 114.10 103.74 112.37 110.74 C 111.36 100.24 111.59 89.42 114.09 79.12 Z" />
<path fill="#020407" opacity="0.62" d=" M 195.69 74.65 C 197.41 70.56 202.61 68.00 206.69 70.27 C 211.37 73.14 212.58 79.06 213.51 84.07 C 214.89 94.06 215.19 104.30 213.84 114.30 C 213.96 106.55 214.59 98.73 213.04 91.07 C 211.98 87.82 209.88 84.73 206.85 83.04 C 203.95 81.62 200.67 82.67 197.78 83.55 C 196.24 88.15 194.65 92.81 191.79 96.79 C 192.06 89.33 192.40 81.49 195.69 74.65 Z" />
<path fill="#020407" opacity="0.62" d=" M 429.22 78.17 C 432.90 75.48 436.48 72.65 440.16 69.97 C 440.34 73.30 442.38 77.25 439.84 80.13 C 436.70 84.16 432.36 88.10 427.00 88.35 C 421.92 88.70 417.49 83.40 412.48 86.21 C 408.66 84.33 404.59 82.52 401.75 79.24 C 399.91 77.31 400.74 74.02 403.00 72.82 C 406.65 70.87 411.10 71.04 415.03 71.93 C 419.20 72.93 422.08 76.20 425.17 78.89 C 426.34 80.21 428.12 78.90 429.22 78.17 Z" />
<path fill="#020407" opacity="0.62" d=" M 480.78 72.80 C 487.74 73.06 496.14 71.05 501.77 76.25 C 507.17 82.55 507.00 91.59 507.06 99.42 C 505.78 94.57 503.87 89.34 499.38 86.57 C 495.91 84.44 491.55 82.43 487.49 84.17 C 484.43 85.03 482.24 87.48 480.80 90.20 C 480.73 84.40 480.78 78.60 480.78 72.80 Z" />
<path fill="#020407" opacity="0.62" d=" M 16.89 90.80 C 22.04 87.99 27.03 84.90 32.12 81.98 C 32.26 87.24 32.19 92.50 32.11 97.76 C 26.87 95.84 21.28 94.45 16.89 90.80 Z" />
<path fill="#020407" opacity="0.62" d=" M 374.58 88.31 C 376.69 93.22 380.28 97.33 384.39 100.68 C 393.55 108.03 404.71 112.11 414.55 118.37 C 416.54 119.54 418.40 121.45 418.03 123.98 C 418.45 127.10 415.60 129.16 413.02 130.10 C 406.53 121.87 394.77 121.64 387.55 114.40 C 385.66 112.68 383.57 111.24 381.49 109.78 C 374.88 105.11 372.07 95.94 374.58 88.31 Z" />
<path fill="#020407" opacity="0.62" d=" M 162.75 92.23 C 163.06 93.52 163.35 94.81 163.63 96.11 C 163.28 109.21 164.21 122.85 170.13 134.78 C 174.51 143.48 182.47 150.56 192.06 152.83 C 203.66 155.66 216.99 154.42 226.55 146.76 C 234.92 139.98 239.21 129.57 241.35 119.28 C 241.64 124.07 241.85 128.96 240.43 133.61 C 237.98 143.09 233.77 153.28 224.89 158.39 C 225.62 155.62 227.28 153.28 229.08 151.11 C 225.97 154.50 222.80 158.12 218.37 159.79 C 211.09 163.35 202.69 163.22 194.84 162.14 C 188.58 161.32 183.98 156.38 177.87 155.14 C 174.77 150.52 171.84 145.79 168.82 141.12 C 167.40 138.84 165.14 137.34 163.00 135.83 C 158.17 138.95 155.54 144.12 153.05 149.08 C 151.39 152.15 149.26 155.40 145.75 156.52 C 141.17 158.10 137.17 161.09 132.39 162.13 C 122.77 163.91 113.04 162.01 103.75 159.49 C 97.63 157.23 93.97 151.43 90.81 146.08 C 87.75 140.77 84.64 134.34 87.47 128.24 C 90.03 135.07 93.73 141.69 99.48 146.34 C 108.50 153.93 121.24 155.52 132.51 153.30 C 141.94 151.54 150.19 145.24 155.01 137.02 C 162.84 123.57 163.48 107.39 162.75 92.23 Z" />
<path fill="#020407" opacity="0.62" d=" M 532.50 123.47 C 533.06 123.89 534.16 124.73 534.72 125.15 C 533.84 130.87 532.17 136.42 530.19 141.85 C 529.52 141.43 528.85 141.00 528.19 140.58 C 523.56 152.03 512.17 159.64 500.24 161.63 C 493.58 163.20 486.72 162.09 479.99 162.85 C 475.37 163.39 470.78 162.32 466.15 162.56 C 462.04 162.70 458.33 160.72 454.66 159.18 C 454.52 157.02 454.36 154.87 454.16 152.73 C 464.09 152.88 474.02 152.59 483.95 152.75 C 495.23 153.09 507.20 152.13 517.02 146.02 C 525.09 141.07 530.15 132.46 532.50 123.47 Z" />
<path fill="#020407" opacity="0.62" d=" M 343.83 149.81 C 352.43 145.82 358.70 137.78 361.39 128.78 C 362.29 131.76 364.11 134.83 362.93 138.02 C 362.57 140.58 360.58 142.31 358.86 144.03 C 358.72 149.22 354.55 152.75 351.20 156.18 C 347.48 160.17 341.68 160.17 336.83 161.84 C 324.56 165.46 311.26 164.24 299.48 159.48 C 296.81 157.90 294.69 155.59 292.45 153.48 C 287.39 148.72 284.83 142.10 281.90 135.96 C 282.41 135.31 283.45 134.00 283.97 133.34 C 287.98 142.60 296.34 149.59 306.03 152.27 C 306.84 152.50 307.65 152.71 308.48 152.89 C 320.18 155.09 332.88 154.96 343.83 149.81 Z" />
<path fill="#020407" opacity="0.62" d=" M 434.46 146.40 C 440.11 142.29 443.88 136.03 445.52 129.29 C 448.30 137.29 442.63 144.91 438.02 150.97 C 435.66 153.62 434.93 158.08 431.18 159.16 C 426.86 160.49 422.41 161.39 418.05 162.59 C 408.36 164.90 398.30 163.37 388.91 160.51 C 382.31 159.52 376.67 155.16 373.29 149.53 C 371.62 146.66 372.36 143.24 373.46 140.32 C 381.25 148.80 392.55 153.60 403.98 154.11 C 414.56 154.71 425.75 152.77 434.46 146.40 Z" />
<path fill="#020407" opacity="0.62" d=" M 20.20 152.81 C 38.24 152.76 56.28 152.70 74.32 152.76 C 73.82 154.61 73.66 156.62 72.69 158.33 C 70.96 160.76 67.74 160.69 65.08 160.78 C 54.71 160.82 44.35 160.73 33.98 160.81 C 29.23 160.78 24.36 160.70 19.83 159.12 C 18.32 157.28 19.82 154.82 20.20 152.81 Z" />
</g>
</svg>
